<mxfile host="app.diagrams.net" agent="Mozilla/5.0 (Windows NT 10.0; Win64; x64) AppleWebKit/537.36 (KHTML, like Gecko) Chrome/128.0.0.0 Safari/537.36" version="24.7.10">
  <diagram name="Page-1" id="NHNphbnU1BOt949jO_5R">
    <mxGraphModel dx="3348" dy="1576" grid="1" gridSize="10" guides="1" tooltips="1" connect="1" arrows="1" fold="1" page="1" pageScale="1" pageWidth="850" pageHeight="1100" math="0" shadow="0">
      <root>
        <mxCell id="0" />
        <mxCell id="1" parent="0" />
        <mxCell id="-a3-E5AeN5XWUU7CoEtd-3" value="&lt;font style=&quot;font-size: 26px;&quot;&gt;&lt;b&gt;FACULTY&lt;/b&gt;&lt;/font&gt;" style="rounded=0;whiteSpace=wrap;html=1;labelBackgroundColor=none;" parent="1" vertex="1">
          <mxGeometry x="1720" y="120" width="200" height="80" as="geometry" />
        </mxCell>
        <mxCell id="-a3-E5AeN5XWUU7CoEtd-4" value="" style="rounded=0;whiteSpace=wrap;html=1;labelBackgroundColor=none;" parent="1" vertex="1">
          <mxGeometry x="120" y="760" width="200" height="80" as="geometry" />
        </mxCell>
        <mxCell id="-a3-E5AeN5XWUU7CoEtd-5" value="" style="rounded=0;whiteSpace=wrap;html=1;labelBackgroundColor=none;" parent="1" vertex="1">
          <mxGeometry x="920" y="760" width="200" height="80" as="geometry" />
        </mxCell>
        <mxCell id="-a3-E5AeN5XWUU7CoEtd-6" value="" style="rounded=0;whiteSpace=wrap;html=1;labelBackgroundColor=none;" parent="1" vertex="1">
          <mxGeometry x="1720" y="760" width="200" height="80" as="geometry" />
        </mxCell>
        <mxCell id="-a3-E5AeN5XWUU7CoEtd-7" value="" style="rounded=0;whiteSpace=wrap;html=1;labelBackgroundColor=none;" parent="1" vertex="1">
          <mxGeometry x="120" y="1400" width="200" height="80" as="geometry" />
        </mxCell>
        <mxCell id="-a3-E5AeN5XWUU7CoEtd-8" value="" style="rounded=0;whiteSpace=wrap;html=1;labelBackgroundColor=none;" parent="1" vertex="1">
          <mxGeometry x="920" y="1400" width="200" height="80" as="geometry" />
        </mxCell>
        <mxCell id="-a3-E5AeN5XWUU7CoEtd-9" value="" style="rounded=0;whiteSpace=wrap;html=1;labelBackgroundColor=none;" parent="1" vertex="1">
          <mxGeometry x="1720" y="1400" width="200" height="80" as="geometry" />
        </mxCell>
        <mxCell id="-a3-E5AeN5XWUU7CoEtd-10" value="&lt;font style=&quot;font-size: 26px;&quot;&gt;&lt;b style=&quot;&quot;&gt;BRANCH&lt;/b&gt;&lt;/font&gt;" style="rounded=0;whiteSpace=wrap;html=1;labelBackgroundColor=none;" parent="1" vertex="1">
          <mxGeometry x="120" y="120" width="200" height="80" as="geometry" />
        </mxCell>
        <mxCell id="-a3-E5AeN5XWUU7CoEtd-11" value="&lt;b&gt;&lt;font style=&quot;font-size: 26px;&quot;&gt;has&lt;/font&gt;&lt;/b&gt;" style="rhombus;whiteSpace=wrap;html=1;labelBackgroundColor=none;" parent="1" vertex="1">
          <mxGeometry x="1340" y="110" width="160" height="100" as="geometry" />
        </mxCell>
        <mxCell id="-a3-E5AeN5XWUU7CoEtd-12" value="" style="endArrow=none;html=1;rounded=0;exitX=1;exitY=0.5;exitDx=0;exitDy=0;entryX=0;entryY=0.5;entryDx=0;entryDy=0;labelBackgroundColor=none;fontColor=default;" parent="1" source="-a3-E5AeN5XWUU7CoEtd-2" target="-a3-E5AeN5XWUU7CoEtd-11" edge="1">
          <mxGeometry width="50" height="50" relative="1" as="geometry">
            <mxPoint x="1350" y="180" as="sourcePoint" />
            <mxPoint x="1400" y="130" as="targetPoint" />
          </mxGeometry>
        </mxCell>
        <mxCell id="-a3-E5AeN5XWUU7CoEtd-13" value="" style="endArrow=none;html=1;rounded=0;exitX=1;exitY=0.5;exitDx=0;exitDy=0;entryX=0;entryY=0.5;entryDx=0;entryDy=0;labelBackgroundColor=none;fontColor=default;" parent="1" source="-a3-E5AeN5XWUU7CoEtd-11" target="-a3-E5AeN5XWUU7CoEtd-3" edge="1">
          <mxGeometry width="50" height="50" relative="1" as="geometry">
            <mxPoint x="1490" y="220" as="sourcePoint" />
            <mxPoint x="1710" y="220" as="targetPoint" />
          </mxGeometry>
        </mxCell>
        <mxCell id="-a3-E5AeN5XWUU7CoEtd-2" value="&lt;font style=&quot;font-size: 26px;&quot;&gt;&lt;b&gt;DEPARTMENT&lt;/b&gt;&lt;/font&gt;" style="rounded=0;whiteSpace=wrap;html=1;labelBackgroundColor=none;" parent="1" vertex="1">
          <mxGeometry x="920" y="120" width="200" height="80" as="geometry" />
        </mxCell>
        <mxCell id="-a3-E5AeN5XWUU7CoEtd-14" value="&lt;b&gt;&lt;font style=&quot;font-size: 26px;&quot;&gt;has&lt;/font&gt;&lt;/b&gt;" style="rhombus;whiteSpace=wrap;html=1;labelBackgroundColor=none;direction=east;" parent="1" vertex="1">
          <mxGeometry x="1340" y="750" width="160" height="100" as="geometry" />
        </mxCell>
        <mxCell id="-a3-E5AeN5XWUU7CoEtd-15" value="" style="endArrow=none;html=1;rounded=0;entryX=0;entryY=0.5;entryDx=0;entryDy=0;labelBackgroundColor=none;fontColor=default;" parent="1" source="-a3-E5AeN5XWUU7CoEtd-5" target="-a3-E5AeN5XWUU7CoEtd-14" edge="1">
          <mxGeometry width="50" height="50" relative="1" as="geometry">
            <mxPoint x="1120" y="800" as="sourcePoint" />
            <mxPoint x="1400" y="770" as="targetPoint" />
          </mxGeometry>
        </mxCell>
        <mxCell id="-a3-E5AeN5XWUU7CoEtd-16" value="" style="endArrow=none;html=1;rounded=0;exitX=1;exitY=0.5;exitDx=0;exitDy=0;labelBackgroundColor=none;fontColor=default;" parent="1" source="-a3-E5AeN5XWUU7CoEtd-14" target="-a3-E5AeN5XWUU7CoEtd-6" edge="1">
          <mxGeometry width="50" height="50" relative="1" as="geometry">
            <mxPoint x="1490" y="860" as="sourcePoint" />
            <mxPoint x="1720" y="800" as="targetPoint" />
          </mxGeometry>
        </mxCell>
      </root>
    </mxGraphModel>
  </diagram>
</mxfile>
